<svg width="60" height="64" viewBox="0 0 60 64" fill="none" xmlns="http://www.w3.org/2000/svg">
<path d="M37.6826 64H20.6572L17.8018 55.1543C21.1124 56.1021 25.2403 56.7783 29.4023 56.7783C33.8162 56.7783 37.5836 56.1453 40.7256 55.0273L37.6826 64ZM22.5117 0C16.853 3.10201 13.6865 8.32855 13.6865 14.4434C13.6867 22.8743 19.9912 28.2097 29.6611 31.5664C36.6554 34.0611 39.4198 36.1263 39.4199 39.7393C39.4199 43.5254 36.2249 46.0215 30.1807 46.0215C24.7797 46.0215 17.0621 43.1348 13.332 41.3066L0 0H22.5117ZM49.5703 28.9521C47.0875 25.9133 43.1868 23.4907 37.7783 21.498C30.2661 18.6589 26.9854 17.0244 26.9854 13.3232C26.9854 10.3126 29.7482 7.73145 35.4482 7.73145C41.1466 7.73145 45.2915 9.366 47.623 10.4844C47.623 10.4844 48.0054 6.95741 49.9785 4.34473C50.5357 3.60546 51.2384 2.77361 52.1318 2.16016C53.2496 1.41735 54.4683 0.837884 55.751 0.439453C56.5528 0.215367 57.3509 0.0785627 58.0977 0H59.3926L49.5703 28.9521Z" fill="black"/>
</svg>
